<mxfile host="app.diagrams.net" agent="Mozilla/5.0 (Windows NT 10.0; Win64; x64) AppleWebKit/537.36 (KHTML, like Gecko) Chrome/131.0.0.0 Safari/537.36 Edg/131.0.0.0" version="24.8.9">
  <diagram name="Page-1" id="2c0d36ab-eaac-3732-788b-9136903baeff">
    <mxGraphModel grid="1" page="1" gridSize="10" guides="1" tooltips="1" connect="1" arrows="1" fold="1" pageScale="1.5" pageWidth="1169" pageHeight="827" background="none" math="0" shadow="0">
      <root>
        <mxCell id="0" />
        <mxCell id="1" parent="0" />
        <mxCell id="Fjs_YQo7GgNDg5CSu0KN-4" style="edgeStyle=orthogonalEdgeStyle;rounded=0;orthogonalLoop=1;jettySize=auto;html=1;exitX=0.25;exitY=1;exitDx=0;exitDy=0;entryX=0;entryY=0.5;entryDx=0;entryDy=0;fontSize=14;" edge="1" parent="1" source="Zl57nU9bKbdxz2f1xPPw-125" target="Fjs_YQo7GgNDg5CSu0KN-3">
          <mxGeometry relative="1" as="geometry" />
        </mxCell>
        <mxCell id="Fjs_YQo7GgNDg5CSu0KN-9" style="edgeStyle=orthogonalEdgeStyle;rounded=0;orthogonalLoop=1;jettySize=auto;html=1;exitX=0.25;exitY=1;exitDx=0;exitDy=0;entryX=0;entryY=0.5;entryDx=0;entryDy=0;fontSize=14;" edge="1" parent="1" source="Zl57nU9bKbdxz2f1xPPw-125" target="Fjs_YQo7GgNDg5CSu0KN-5">
          <mxGeometry relative="1" as="geometry" />
        </mxCell>
        <mxCell id="Fjs_YQo7GgNDg5CSu0KN-10" style="edgeStyle=orthogonalEdgeStyle;rounded=0;orthogonalLoop=1;jettySize=auto;html=1;exitX=0.25;exitY=1;exitDx=0;exitDy=0;entryX=0;entryY=0.5;entryDx=0;entryDy=0;fontSize=14;" edge="1" parent="1" source="Zl57nU9bKbdxz2f1xPPw-125" target="Fjs_YQo7GgNDg5CSu0KN-6">
          <mxGeometry relative="1" as="geometry" />
        </mxCell>
        <mxCell id="Fjs_YQo7GgNDg5CSu0KN-11" style="edgeStyle=orthogonalEdgeStyle;rounded=0;orthogonalLoop=1;jettySize=auto;html=1;exitX=0.25;exitY=1;exitDx=0;exitDy=0;entryX=0;entryY=0.5;entryDx=0;entryDy=0;fontSize=14;" edge="1" parent="1" source="Zl57nU9bKbdxz2f1xPPw-125" target="Fjs_YQo7GgNDg5CSu0KN-8">
          <mxGeometry relative="1" as="geometry" />
        </mxCell>
        <mxCell id="Zl57nU9bKbdxz2f1xPPw-125" value="用户管理" style="rounded=1;whiteSpace=wrap;html=1;fontSize=14;" vertex="1" parent="1">
          <mxGeometry x="120" y="340" width="120" height="60" as="geometry" />
        </mxCell>
        <mxCell id="Fjs_YQo7GgNDg5CSu0KN-14" style="edgeStyle=orthogonalEdgeStyle;rounded=0;orthogonalLoop=1;jettySize=auto;html=1;exitX=0.25;exitY=1;exitDx=0;exitDy=0;entryX=0;entryY=0.5;entryDx=0;entryDy=0;fontSize=14;" edge="1" parent="1" source="Zl57nU9bKbdxz2f1xPPw-126" target="Fjs_YQo7GgNDg5CSu0KN-13">
          <mxGeometry relative="1" as="geometry" />
        </mxCell>
        <mxCell id="Fjs_YQo7GgNDg5CSu0KN-16" style="edgeStyle=orthogonalEdgeStyle;rounded=0;orthogonalLoop=1;jettySize=auto;html=1;exitX=0.25;exitY=1;exitDx=0;exitDy=0;entryX=0;entryY=0.5;entryDx=0;entryDy=0;fontSize=14;" edge="1" parent="1" source="Zl57nU9bKbdxz2f1xPPw-126" target="Fjs_YQo7GgNDg5CSu0KN-15">
          <mxGeometry relative="1" as="geometry" />
        </mxCell>
        <mxCell id="Zl57nU9bKbdxz2f1xPPw-126" value="产品管理" style="rounded=1;whiteSpace=wrap;html=1;fontSize=14;" vertex="1" parent="1">
          <mxGeometry x="300" y="340" width="120" height="60" as="geometry" />
        </mxCell>
        <mxCell id="Fjs_YQo7GgNDg5CSu0KN-22" style="edgeStyle=orthogonalEdgeStyle;rounded=0;orthogonalLoop=1;jettySize=auto;html=1;exitX=0.25;exitY=1;exitDx=0;exitDy=0;entryX=0;entryY=0.5;entryDx=0;entryDy=0;fontSize=14;" edge="1" parent="1" source="Zl57nU9bKbdxz2f1xPPw-127" target="Fjs_YQo7GgNDg5CSu0KN-21">
          <mxGeometry relative="1" as="geometry" />
        </mxCell>
        <mxCell id="Fjs_YQo7GgNDg5CSu0KN-24" style="edgeStyle=orthogonalEdgeStyle;rounded=0;orthogonalLoop=1;jettySize=auto;html=1;exitX=0.25;exitY=1;exitDx=0;exitDy=0;entryX=0;entryY=0.5;entryDx=0;entryDy=0;fontSize=14;" edge="1" parent="1" source="Zl57nU9bKbdxz2f1xPPw-127" target="Fjs_YQo7GgNDg5CSu0KN-23">
          <mxGeometry relative="1" as="geometry" />
        </mxCell>
        <mxCell id="Fjs_YQo7GgNDg5CSu0KN-26" style="edgeStyle=orthogonalEdgeStyle;rounded=0;orthogonalLoop=1;jettySize=auto;html=1;exitX=0.25;exitY=1;exitDx=0;exitDy=0;entryX=0;entryY=0.5;entryDx=0;entryDy=0;fontSize=14;" edge="1" parent="1" source="Zl57nU9bKbdxz2f1xPPw-127" target="Fjs_YQo7GgNDg5CSu0KN-25">
          <mxGeometry relative="1" as="geometry" />
        </mxCell>
        <mxCell id="Fjs_YQo7GgNDg5CSu0KN-28" style="edgeStyle=orthogonalEdgeStyle;rounded=0;orthogonalLoop=1;jettySize=auto;html=1;exitX=0.25;exitY=1;exitDx=0;exitDy=0;entryX=0;entryY=0.5;entryDx=0;entryDy=0;fontSize=14;" edge="1" parent="1" source="Zl57nU9bKbdxz2f1xPPw-127" target="Fjs_YQo7GgNDg5CSu0KN-27">
          <mxGeometry relative="1" as="geometry" />
        </mxCell>
        <mxCell id="Zl57nU9bKbdxz2f1xPPw-127" value="订单管理" style="rounded=1;whiteSpace=wrap;html=1;fontSize=14;" vertex="1" parent="1">
          <mxGeometry x="480" y="340" width="120" height="60" as="geometry" />
        </mxCell>
        <mxCell id="Fjs_YQo7GgNDg5CSu0KN-30" style="edgeStyle=orthogonalEdgeStyle;rounded=0;orthogonalLoop=1;jettySize=auto;html=1;exitX=0.25;exitY=1;exitDx=0;exitDy=0;entryX=0;entryY=0.5;entryDx=0;entryDy=0;fontSize=14;" edge="1" parent="1" source="Zl57nU9bKbdxz2f1xPPw-128" target="Fjs_YQo7GgNDg5CSu0KN-29">
          <mxGeometry relative="1" as="geometry" />
        </mxCell>
        <mxCell id="Fjs_YQo7GgNDg5CSu0KN-35" style="edgeStyle=orthogonalEdgeStyle;rounded=0;orthogonalLoop=1;jettySize=auto;html=1;exitX=0.25;exitY=1;exitDx=0;exitDy=0;entryX=0;entryY=0.5;entryDx=0;entryDy=0;fontSize=14;" edge="1" parent="1" source="Zl57nU9bKbdxz2f1xPPw-128" target="Fjs_YQo7GgNDg5CSu0KN-31">
          <mxGeometry relative="1" as="geometry" />
        </mxCell>
        <mxCell id="Fjs_YQo7GgNDg5CSu0KN-36" style="edgeStyle=orthogonalEdgeStyle;rounded=0;orthogonalLoop=1;jettySize=auto;html=1;exitX=0.25;exitY=1;exitDx=0;exitDy=0;entryX=0;entryY=0.5;entryDx=0;entryDy=0;fontSize=14;" edge="1" parent="1" source="Zl57nU9bKbdxz2f1xPPw-128" target="Fjs_YQo7GgNDg5CSu0KN-32">
          <mxGeometry relative="1" as="geometry" />
        </mxCell>
        <mxCell id="Fjs_YQo7GgNDg5CSu0KN-38" style="edgeStyle=orthogonalEdgeStyle;rounded=0;orthogonalLoop=1;jettySize=auto;html=1;exitX=0.25;exitY=1;exitDx=0;exitDy=0;entryX=0;entryY=0.5;entryDx=0;entryDy=0;fontSize=14;" edge="1" parent="1" source="Zl57nU9bKbdxz2f1xPPw-128" target="Fjs_YQo7GgNDg5CSu0KN-37">
          <mxGeometry relative="1" as="geometry" />
        </mxCell>
        <mxCell id="Zl57nU9bKbdxz2f1xPPw-128" value="支付管理" style="rounded=1;whiteSpace=wrap;html=1;fontSize=14;" vertex="1" parent="1">
          <mxGeometry x="660" y="340" width="120" height="60" as="geometry" />
        </mxCell>
        <mxCell id="Fjs_YQo7GgNDg5CSu0KN-12" style="edgeStyle=orthogonalEdgeStyle;rounded=0;orthogonalLoop=1;jettySize=auto;html=1;exitX=0.5;exitY=1;exitDx=0;exitDy=0;entryX=0.5;entryY=0;entryDx=0;entryDy=0;fontSize=14;" edge="1" parent="1" source="Zl57nU9bKbdxz2f1xPPw-135" target="Zl57nU9bKbdxz2f1xPPw-125">
          <mxGeometry relative="1" as="geometry" />
        </mxCell>
        <mxCell id="Fjs_YQo7GgNDg5CSu0KN-17" style="edgeStyle=orthogonalEdgeStyle;rounded=0;orthogonalLoop=1;jettySize=auto;html=1;exitX=0.5;exitY=1;exitDx=0;exitDy=0;fontSize=14;" edge="1" parent="1" source="Zl57nU9bKbdxz2f1xPPw-135" target="Zl57nU9bKbdxz2f1xPPw-126">
          <mxGeometry relative="1" as="geometry" />
        </mxCell>
        <mxCell id="Fjs_YQo7GgNDg5CSu0KN-18" style="edgeStyle=orthogonalEdgeStyle;rounded=0;orthogonalLoop=1;jettySize=auto;html=1;exitX=0.5;exitY=1;exitDx=0;exitDy=0;entryX=0.5;entryY=0;entryDx=0;entryDy=0;fontSize=14;" edge="1" parent="1" source="Zl57nU9bKbdxz2f1xPPw-135" target="Zl57nU9bKbdxz2f1xPPw-127">
          <mxGeometry relative="1" as="geometry" />
        </mxCell>
        <mxCell id="Fjs_YQo7GgNDg5CSu0KN-19" style="edgeStyle=orthogonalEdgeStyle;rounded=0;orthogonalLoop=1;jettySize=auto;html=1;exitX=0.5;exitY=1;exitDx=0;exitDy=0;entryX=0.5;entryY=0;entryDx=0;entryDy=0;fontSize=14;" edge="1" parent="1" source="Zl57nU9bKbdxz2f1xPPw-135" target="Zl57nU9bKbdxz2f1xPPw-128">
          <mxGeometry relative="1" as="geometry" />
        </mxCell>
        <mxCell id="Fjs_YQo7GgNDg5CSu0KN-20" style="edgeStyle=orthogonalEdgeStyle;rounded=0;orthogonalLoop=1;jettySize=auto;html=1;exitX=0.5;exitY=1;exitDx=0;exitDy=0;entryX=0.5;entryY=0;entryDx=0;entryDy=0;fontSize=14;" edge="1" parent="1" source="Zl57nU9bKbdxz2f1xPPw-135" target="Fjs_YQo7GgNDg5CSu0KN-1">
          <mxGeometry relative="1" as="geometry" />
        </mxCell>
        <mxCell id="Zl57nU9bKbdxz2f1xPPw-135" value="集团客户" style="rounded=1;whiteSpace=wrap;html=1;fontSize=14;" vertex="1" parent="1">
          <mxGeometry x="480" y="240" width="120" height="60" as="geometry" />
        </mxCell>
        <mxCell id="Fjs_YQo7GgNDg5CSu0KN-34" style="edgeStyle=orthogonalEdgeStyle;rounded=0;orthogonalLoop=1;jettySize=auto;html=1;exitX=0.25;exitY=1;exitDx=0;exitDy=0;entryX=0;entryY=0.5;entryDx=0;entryDy=0;fontSize=14;" edge="1" parent="1" source="Fjs_YQo7GgNDg5CSu0KN-1" target="Fjs_YQo7GgNDg5CSu0KN-33">
          <mxGeometry relative="1" as="geometry" />
        </mxCell>
        <mxCell id="Fjs_YQo7GgNDg5CSu0KN-40" style="edgeStyle=orthogonalEdgeStyle;rounded=0;orthogonalLoop=1;jettySize=auto;html=1;exitX=0.25;exitY=1;exitDx=0;exitDy=0;entryX=0;entryY=0.5;entryDx=0;entryDy=0;fontSize=14;" edge="1" parent="1" source="Fjs_YQo7GgNDg5CSu0KN-1" target="Fjs_YQo7GgNDg5CSu0KN-39">
          <mxGeometry relative="1" as="geometry" />
        </mxCell>
        <mxCell id="Fjs_YQo7GgNDg5CSu0KN-42" style="edgeStyle=orthogonalEdgeStyle;rounded=0;orthogonalLoop=1;jettySize=auto;html=1;exitX=0.25;exitY=1;exitDx=0;exitDy=0;entryX=0;entryY=0.5;entryDx=0;entryDy=0;fontSize=14;" edge="1" parent="1" source="Fjs_YQo7GgNDg5CSu0KN-1" target="Fjs_YQo7GgNDg5CSu0KN-41">
          <mxGeometry relative="1" as="geometry" />
        </mxCell>
        <mxCell id="Fjs_YQo7GgNDg5CSu0KN-44" style="edgeStyle=orthogonalEdgeStyle;rounded=0;orthogonalLoop=1;jettySize=auto;html=1;exitX=0.25;exitY=1;exitDx=0;exitDy=0;entryX=0;entryY=0.5;entryDx=0;entryDy=0;fontSize=14;" edge="1" parent="1" source="Fjs_YQo7GgNDg5CSu0KN-1" target="Fjs_YQo7GgNDg5CSu0KN-43">
          <mxGeometry relative="1" as="geometry" />
        </mxCell>
        <mxCell id="Fjs_YQo7GgNDg5CSu0KN-1" value="售后服务" style="rounded=1;whiteSpace=wrap;html=1;fontSize=14;" vertex="1" parent="1">
          <mxGeometry x="840" y="340" width="120" height="60" as="geometry" />
        </mxCell>
        <mxCell id="Fjs_YQo7GgNDg5CSu0KN-3" value="登录" style="rounded=1;whiteSpace=wrap;html=1;fontSize=14;" vertex="1" parent="1">
          <mxGeometry x="170" y="430" width="120" height="60" as="geometry" />
        </mxCell>
        <mxCell id="Fjs_YQo7GgNDg5CSu0KN-5" value="用户信息编辑" style="rounded=1;whiteSpace=wrap;html=1;fontSize=14;" vertex="1" parent="1">
          <mxGeometry x="170" y="520" width="120" height="60" as="geometry" />
        </mxCell>
        <mxCell id="Fjs_YQo7GgNDg5CSu0KN-6" value="注册：需要包含相关材料认证审核" style="rounded=1;whiteSpace=wrap;html=1;fillColor=#fff2cc;strokeColor=#d6b656;fontSize=14;" vertex="1" parent="1">
          <mxGeometry x="170" y="610" width="120" height="60" as="geometry" />
        </mxCell>
        <mxCell id="Fjs_YQo7GgNDg5CSu0KN-8" value="多人协作&lt;br&gt;高级权限管理" style="rounded=1;whiteSpace=wrap;html=1;fillColor=#fff2cc;strokeColor=#d6b656;fontSize=14;" vertex="1" parent="1">
          <mxGeometry x="170" y="700" width="120" height="60" as="geometry" />
        </mxCell>
        <mxCell id="Fjs_YQo7GgNDg5CSu0KN-13" value="产品搜索" style="rounded=1;whiteSpace=wrap;html=1;fontSize=14;" vertex="1" parent="1">
          <mxGeometry x="350" y="430" width="120" height="60" as="geometry" />
        </mxCell>
        <mxCell id="Fjs_YQo7GgNDg5CSu0KN-15" value="产品定制化&lt;br&gt;需求管理" style="rounded=1;whiteSpace=wrap;html=1;fillColor=#fff2cc;strokeColor=#d6b656;fontSize=14;" vertex="1" parent="1">
          <mxGeometry x="350" y="520" width="120" height="60" as="geometry" />
        </mxCell>
        <mxCell id="Fjs_YQo7GgNDg5CSu0KN-21" value="创建订单" style="rounded=1;whiteSpace=wrap;html=1;fontSize=14;" vertex="1" parent="1">
          <mxGeometry x="530" y="430" width="120" height="60" as="geometry" />
        </mxCell>
        <mxCell id="Fjs_YQo7GgNDg5CSu0KN-23" value="查看订单状态" style="rounded=1;whiteSpace=wrap;html=1;fontSize=14;" vertex="1" parent="1">
          <mxGeometry x="530" y="520" width="120" height="60" as="geometry" />
        </mxCell>
        <mxCell id="Fjs_YQo7GgNDg5CSu0KN-25" value="查看订单历史" style="rounded=1;whiteSpace=wrap;html=1;fontSize=14;" vertex="1" parent="1">
          <mxGeometry x="530" y="610" width="120" height="60" as="geometry" />
        </mxCell>
        <mxCell id="Fjs_YQo7GgNDg5CSu0KN-27" value="严格的物流跟踪和交货进度管理" style="rounded=1;whiteSpace=wrap;html=1;fillColor=#fff2cc;strokeColor=#d6b656;fontSize=14;" vertex="1" parent="1">
          <mxGeometry x="530" y="700" width="120" height="60" as="geometry" />
        </mxCell>
        <mxCell id="Fjs_YQo7GgNDg5CSu0KN-29" value="选择支付方式" style="rounded=1;whiteSpace=wrap;html=1;fontSize=14;" vertex="1" parent="1">
          <mxGeometry x="710" y="430" width="120" height="60" as="geometry" />
        </mxCell>
        <mxCell id="Fjs_YQo7GgNDg5CSu0KN-31" value="查询支付状态" style="rounded=1;whiteSpace=wrap;html=1;fontSize=14;" vertex="1" parent="1">
          <mxGeometry x="710" y="520" width="120" height="60" as="geometry" />
        </mxCell>
        <mxCell id="Fjs_YQo7GgNDg5CSu0KN-32" value="查看支付历史" style="rounded=1;whiteSpace=wrap;html=1;fontSize=14;" vertex="1" parent="1">
          <mxGeometry x="710" y="610" width="120" height="60" as="geometry" />
        </mxCell>
        <mxCell id="Fjs_YQo7GgNDg5CSu0KN-33" value="退换货管理" style="rounded=1;whiteSpace=wrap;html=1;fontSize=14;" vertex="1" parent="1">
          <mxGeometry x="890" y="430" width="120" height="60" as="geometry" />
        </mxCell>
        <mxCell id="Fjs_YQo7GgNDg5CSu0KN-37" value="检查与合同匹配的分期或预付款流程" style="rounded=1;whiteSpace=wrap;html=1;fillColor=#fff2cc;strokeColor=#d6b656;fontSize=14;" vertex="1" parent="1">
          <mxGeometry x="710" y="700" width="120" height="60" as="geometry" />
        </mxCell>
        <mxCell id="Fjs_YQo7GgNDg5CSu0KN-39" value="线上线下售后支持" style="rounded=1;whiteSpace=wrap;html=1;fillColor=#fff2cc;strokeColor=#d6b656;fontSize=14;" vertex="1" parent="1">
          <mxGeometry x="890" y="520" width="120" height="60" as="geometry" />
        </mxCell>
        <mxCell id="Fjs_YQo7GgNDg5CSu0KN-41" value="生成财务报表" style="rounded=1;whiteSpace=wrap;html=1;fillColor=#fff2cc;strokeColor=#d6b656;fontSize=14;" vertex="1" parent="1">
          <mxGeometry x="890" y="610" width="120" height="60" as="geometry" />
        </mxCell>
        <mxCell id="Fjs_YQo7GgNDg5CSu0KN-43" value="生成合规报告" style="rounded=1;whiteSpace=wrap;html=1;fillColor=#fff2cc;strokeColor=#d6b656;fontSize=14;" vertex="1" parent="1">
          <mxGeometry x="890" y="700" width="120" height="60" as="geometry" />
        </mxCell>
      </root>
    </mxGraphModel>
  </diagram>
</mxfile>
